<?xml version="1.0" encoding="UTF-8"?>
<svg version="1.1" xmlns="http://www.w3.org/2000/svg" width="993" height="1145">
<path d="M0 0 C2.37583675 -0.00217479 4.75119864 -0.02036947 7.12695312 -0.03930664 C15.15272131 -0.07011036 23.09244547 0.19546872 31.08007812 1.00952148 C31.81533722 1.07887405 32.55059631 1.14822662 33.30813599 1.21968079 C39.83628326 1.96854356 45.0988688 4.00065495 49.27539062 9.18530273 C51.99366898 14.43554369 52.5858957 17.48736567 51.70117188 23.47045898 C51.60048904 24.18992203 51.49980621 24.90938507 51.39607239 25.65065002 C51.16679215 27.26935024 50.92829458 28.88676291 50.68218994 30.50299072 C50.24447888 33.38912546 49.8349245 36.27838967 49.42919922 39.16918945 C48.46604845 45.99086552 47.4664658 52.80697312 46.46289062 59.62280273 C45.92300944 63.29682124 45.38336276 66.9708741 44.84382629 70.64494324 C44.48720747 73.07306105 44.13026646 75.50113157 43.772995 77.92915344 C42.73572796 84.99263609 41.7259019 92.05922348 40.74414062 99.13061523 C40.41744681 101.45559866 40.08988096 103.780457 39.76187134 106.10525513 C39.56479126 107.51756515 39.37132509 108.93038488 39.18173218 110.34371948 C38.92412723 112.26224501 38.65286061 114.17892152 38.38085938 116.09545898 C38.23801514 117.13839111 38.0951709 118.18132324 37.94799805 119.25585938 C36.43258509 125.85601912 33.56112774 129.33111942 28.27539062 133.18530273 C24.72538837 134.36863682 21.57486619 134.25423899 17.88867188 134.17749023 C16.37630929 134.15993078 14.86393899 134.14302683 13.3515625 134.12670898 C10.99123035 134.09616551 8.63129979 134.06117192 6.27124023 134.01391602 C-23.85897052 133.44330451 -51.5055462 143.83860664 -73.87304688 164.30249023 C-92.5241181 183.26834747 -106.15423416 210.25544424 -106.72460938 237.18530273 C-106.76328125 238.17143555 -106.80195313 239.15756836 -106.84179688 240.17358398 C-107.38927288 265.08374227 -100.30243463 290.46443885 -84.72460938 310.18530273 C-84.03625 311.08635742 -83.34789062 311.98741211 -82.63867188 312.91577148 C-64.92327597 335.44851189 -40.37547056 347.73500837 -12.66210938 353.18530273 C-7.95439756 354.22949445 -4.32111188 355.90245336 -1.47070312 359.97827148 C0.99982448 364.42866442 1.94268533 368.03760069 1.27539062 373.18530273 C-0.61051568 378.62115032 -4.09258617 381.95341382 -8.72460938 385.18530273 C-15.47964608 387.43698163 -21.9649653 385.69966951 -28.66210938 384.06030273 C-29.58797852 383.83439453 -30.51384766 383.60848633 -31.46777344 383.37573242 C-69.00153926 373.91137133 -100.29996927 350.32348115 -120.5 317.29370117 C-127.28539779 305.61134564 -132.34930787 293.24611816 -135.72460938 280.18530273 C-135.91925781 279.48518066 -136.11390625 278.78505859 -136.31445312 278.0637207 C-142.46965773 255.45943582 -141.73758041 229.73517931 -135.72460938 207.18530273 C-135.45173096 206.12085938 -135.45173096 206.12085938 -135.17333984 205.03491211 C-130.03532613 185.43791252 -120.27442615 167.70477946 -107.35351562 152.17358398 C-105.58140963 150.07689719 -105.58140963 150.07689719 -103.72460938 147.18530273 C-103.06460938 147.18530273 -102.40460938 147.18530273 -101.72460938 147.18530273 C-101.49773437 146.62842773 -101.27085937 146.07155273 -101.03710938 145.49780273 C-99.34910901 142.52370686 -97.25784421 140.46521408 -94.72460938 138.18530273 C-94.06460938 138.18530273 -93.40460938 138.18530273 -92.72460938 138.18530273 C-92.72460938 137.52530273 -92.72460938 136.86530273 -92.72460938 136.18530273 C-74.20397296 117.85618573 -47.88312603 107.0941255 -22.72460938 102.18530273 C-21.06365234 101.84692383 -21.06365234 101.84692383 -19.36914062 101.50170898 C-10.4757644 99.8997965 -1.71986304 100.02561269 7.27539062 100.18530273 C7.37770996 99.25468018 7.4800293 98.32405762 7.58544922 97.36523438 C9.08089433 84.07837428 10.9881389 70.85500521 12.90039062 57.62280273 C13.22871358 55.33962807 13.55683991 53.05642512 13.88476562 50.77319336 C14.67937866 45.24356902 15.47640116 39.71429632 16.27539062 34.18530273 C-15.9159104 28.60243286 -52.32234878 38.51229811 -81.72460938 51.18530273 C-82.38541504 51.46712402 -83.0462207 51.74894531 -83.72705078 52.03930664 C-108.39453018 62.68836628 -133.59980234 79.47984369 -150.56445312 100.63452148 C-151.27730469 101.4762793 -151.99015625 102.31803711 -152.72460938 103.18530273 C-153.38460937 103.18530273 -154.04460937 103.18530273 -154.72460938 103.18530273 C-155.09585938 104.02641602 -155.09585938 104.02641602 -155.47460938 104.88452148 C-156.94058837 107.58283908 -158.72145099 109.66913112 -160.72460938 111.99780273 C-196.15930558 154.90435181 -210.9248004 211.65964816 -205.77685547 266.5871582 C-201.75787716 304.0954582 -187.5865056 340.1814257 -164.72460938 370.18530273 C-164.05816406 371.06444336 -163.39171875 371.94358398 -162.70507812 372.84936523 C-157.41900954 379.63189723 -151.62626469 385.94109344 -145.72460938 392.18530273 C-144.92152344 393.0425293 -144.1184375 393.89975586 -143.29101562 394.78295898 C-107.38770501 431.98326933 -54.35251633 452.55472643 -3.22460938 454.38842773 C45.01459299 455.22704525 94.82644735 440.18470578 132.27539062 409.18530273 C133.12101562 408.54077148 133.96664063 407.89624023 134.83789062 407.23217773 C148.99948537 396.26557692 162.08273765 382.92013618 172.27539062 368.18530273 C172.68547363 367.5982959 173.09555664 367.01128906 173.51806641 366.40649414 C176.53965605 362.06303037 179.43824921 357.65106202 182.27539062 353.18530273 C182.94183594 352.14631836 183.60828125 351.10733398 184.29492188 350.03686523 C197.37668126 328.45595872 205.09739503 304.52686122 209.40185547 279.82373047 C210.77250358 272.34202941 212.16629065 266.61040071 218.40039062 261.74780273 C223.44434215 259.24747483 229.00124066 259.133342 234.33007812 260.84545898 C238.0776718 262.70317173 240.78760037 265.27463844 242.61523438 269.04858398 C250.42419084 294.32372709 230.3951098 335.02873106 218.96289062 356.87280273 C209.3324836 374.69373481 198.04222166 391.03933519 184.33007812 405.94702148 C182.3943646 408.05569801 180.51719086 410.20316601 178.65039062 412.37280273 C172.9619904 418.86641029 166.88560685 424.46059106 160.15039062 429.86889648 C158.29939403 431.36025652 156.46448213 432.87192019 154.65039062 434.40795898 C120.7001971 463.05343477 76.93629181 480.06721467 33.27539062 486.18530273 C32.54199463 486.28987793 31.80859863 486.39445312 31.05297852 486.50219727 C-14.97982965 492.0761905 -62.20268081 483.25396338 -103.72460938 463.18530273 C-104.52543945 462.79858398 -105.32626953 462.41186523 -106.15136719 462.01342773 C-124.40687092 453.07560461 -140.60976185 441.59957475 -156.11816406 428.5168457 C-157.60394821 427.28531581 -159.13539276 426.10944007 -160.66992188 424.93920898 C-161.34796875 424.36041992 -162.02601563 423.78163086 -162.72460938 423.18530273 C-162.72460938 422.52530273 -162.72460938 421.86530273 -162.72460938 421.18530273 C-163.55992187 420.84499023 -163.55992187 420.84499023 -164.41210938 420.49780273 C-167.38620525 418.80980237 -169.44469803 416.71853757 -171.72460938 414.18530273 C-171.72460938 413.52530273 -171.72460938 412.86530273 -171.72460938 412.18530273 C-172.38460937 412.18530273 -173.04460937 412.18530273 -173.72460938 412.18530273 C-176.30698626 409.76529086 -178.47244521 406.90912432 -180.72460938 404.18530273 C-181.37163818 403.41259033 -181.37163818 403.41259033 -182.03173828 402.62426758 C-201.99013695 378.71178086 -217.61524536 351.6642617 -227.72460938 322.18530273 C-227.97597656 321.45811035 -228.22734375 320.73091797 -228.48632812 319.98168945 C-236.77283558 295.54805993 -239.95099763 270.31331255 -239.91210938 244.62280273 C-239.91117279 243.82272797 -239.91023621 243.0226532 -239.90927124 242.19833374 C-239.87939379 230.42117455 -239.69862694 218.82338205 -237.72460938 207.18530273 C-237.56863281 206.24783203 -237.41265625 205.31036133 -237.25195312 204.34448242 C-230.18175921 163.14096344 -213.56362448 123.50881223 -186.72460938 91.18530273 C-185.98726562 90.26491211 -185.24992187 89.34452148 -184.49023438 88.39624023 C-172.54158339 73.68428882 -159.00996564 60.38823466 -143.72460938 49.18530273 C-142.84160156 48.50725586 -141.95859375 47.82920898 -141.04882812 47.13061523 C-127.92143302 37.21036825 -113.56023972 29.22209352 -98.72460938 22.18530273 C-97.84417969 21.74959961 -96.96375 21.31389648 -96.05664062 20.86499023 C-65.94459026 6.40737623 -33.22077075 -0.00338435 0 0 Z " fill="#F6B108" transform="translate(428.724609375,237.814697265625)"/>
<path d="M0 0 C0.92683594 -0.0309375 1.85367187 -0.061875 2.80859375 -0.09375 C6.64113055 0.73255581 8.01552402 2.57057076 10.5625 5.5 C11.32949219 6.3765625 12.09648437 7.253125 12.88671875 8.15625 C18.52389278 14.93949413 23.97453437 21.83821083 29.3125 28.85888672 C31.38551464 31.58052821 33.47472103 34.28967885 35.5625 37 C38.05335428 40.2363137 40.54293321 43.47357986 43.02734375 46.71484375 C47.79621927 52.93249159 52.60671224 59.11476206 57.45678711 65.26928711 C60.93597119 69.68915535 64.3713003 74.1410061 67.79296875 78.60546875 C70.85389112 82.59335815 73.95089949 86.55156135 77.0625 90.5 C80.52660577 94.89667999 83.96671297 99.3097439 87.375 103.75 C88.62218988 105.37320528 89.8696409 106.9962095 91.1171875 108.61914062 C92.17244467 109.99240097 93.22704121 111.36616905 94.28125 112.74023438 C96.14218049 115.1629924 98.00820047 117.58176236 99.875 120 C100.7553894 121.14903809 100.7553894 121.14903809 101.65356445 122.32128906 C104.74918674 126.32265604 107.88534118 130.02291173 111.5625 133.5 C111.91054688 132.35015625 112.25859375 131.2003125 112.6171875 130.015625 C115.10875668 122.54965981 118.47421329 115.42570276 121.6875 108.25 C122.96301149 105.39154605 124.23608427 102.532014 125.5078125 99.671875 C125.83348709 98.93975296 126.15916168 98.20763092 126.4947052 97.45332336 C130.20893303 89.08027414 133.79707397 80.65367433 137.39465332 72.2300415 C140.5525488 64.84792032 143.73781766 57.47752795 146.91967773 50.10571289 C147.72546088 48.23839166 148.530797 46.37087747 149.33569336 44.50317383 C151.3122945 39.91664507 153.2934032 35.33220033 155.28564453 30.75244141 C156.79668642 27.2786923 158.28473332 23.7963609 159.75732422 20.30615234 C160.451196 18.68704528 161.1453549 17.06806123 161.83984375 15.44921875 C162.14314102 14.71661331 162.44643829 13.98400787 162.75892639 13.22920227 C165.085349 7.8603186 167.65083204 3.68051943 173.31576729 1.38370323 C176.74284176 0.45091416 179.60529326 0.24305447 183.15255737 0.23257446 C185.11649948 0.21977951 185.11649948 0.21977951 187.12011719 0.20672607 C188.55908215 0.207425 189.99804702 0.20834801 191.43701172 0.20947266 C192.96184619 0.20348422 194.48667764 0.19667795 196.01150513 0.18911743 C200.14380289 0.17148327 204.27601776 0.16676317 208.40834951 0.16548586 C210.99245784 0.16406235 213.57654523 0.15978899 216.16064835 0.15449142 C225.18247054 0.1360004 234.20423371 0.12781974 243.22607422 0.12939453 C251.62514606 0.130596 260.02396096 0.10949022 268.42296779 0.0779072 C275.64354846 0.05172657 282.86404529 0.04102797 290.08467305 0.04230535 C294.39303639 0.04281442 298.70117124 0.03716188 303.00948715 0.01594925 C307.0627259 -0.00346365 311.11551887 -0.00353703 315.16877365 0.01098251 C316.6522029 0.01306788 318.13566028 0.00838593 319.61904144 -0.0037384 C328.46337706 -0.07131794 335.71553841 -0.12480919 342.4375 6.2890625 C345.76659882 11.72196683 346.46620545 16.20351907 345.5625 22.5 C344.02408282 27.24523782 341.96765581 31.72956919 339.875 36.25 C339.27838411 37.57585651 338.6837794 38.90261963 338.09106445 40.23022461 C336.86306042 42.97655773 335.62662501 45.71884483 334.38378906 48.45849609 C331.59402158 54.62574746 328.92811426 60.84609218 326.25 67.0625 C325.17178352 69.55391041 324.0916318 72.04448085 323.01171875 74.53515625 C318.50982691 84.92614168 314.01666002 95.32090597 309.52441406 105.71606445 C306.32395504 113.12101309 303.11971213 120.52425563 299.90234375 127.921875 C298.76797262 130.53113856 297.6338797 133.14052285 296.5 135.75 C296.22951843 136.37230499 295.95903687 136.99460999 295.68035889 137.63577271 C292.31908644 145.37440645 289.03655208 153.13709439 285.86962891 160.95703125 C283.92477134 165.72211316 281.76280497 170.35664916 279.53759766 174.99584961 C275.99094325 182.52061309 272.91742952 190.25002905 269.765625 197.94570923 C266.46506304 205.99730718 263.04011864 213.93342109 259.26953125 221.77734375 C256.56389249 227.53914282 254.27749482 233.48708789 251.89770508 239.38842773 C249.75613422 244.66969362 247.51968138 249.85812045 245.0625 255 C242.07283933 261.31857361 239.2359053 267.69226562 236.5 274.125 C235.87158203 275.5490918 235.87158203 275.5490918 235.23046875 277.00195312 C234.8540625 277.90107422 234.47765625 278.80019531 234.08984375 279.7265625 C233.74687256 280.52658691 233.40390137 281.32661133 233.05053711 282.15087891 C232.41199713 285.2244315 233.14663023 286.74578315 234.5625 289.5 C236.2154748 291.65384756 236.2154748 291.65384756 238.1875 293.6875 C242.55419803 298.44830435 246.56206656 303.43068847 250.5625 308.5 C251.83239021 310.08408985 253.10323414 311.6674156 254.375 313.25 C256.65307068 316.09424481 258.91720075 318.94834534 261.16015625 321.8203125 C266.34847067 328.46268269 271.62422756 335.0027166 277.046875 341.45703125 C279.69330173 344.65822134 282.26074725 347.91090154 284.8125 351.1875 C288.97598503 356.53203093 293.24052839 361.78289692 297.5625 367 C302.35261757 372.7822076 307.05153215 378.62142791 311.66235352 384.54736328 C314.53240222 388.22436546 317.4855577 391.81421998 320.5 395.375 C324.44807545 400.11015158 328.33526848 404.88691544 332.125 409.75 C332.6502124 410.39952637 333.1754248 411.04905273 333.71655273 411.71826172 C337.26453487 416.34279595 338.42730682 419.64367717 338.5625 425.5 C337.03287614 429.76684551 335.40672691 432.14211741 331.5625 434.5 C328.9765625 434.96875 328.9765625 434.96875 326.1875 435 C324.81464844 435.04640625 324.81464844 435.04640625 323.4140625 435.09375 C317.07071168 433.77294271 313.36604537 428.26346024 309.6875 423.3125 C308.81718095 422.15436534 307.94607867 420.99681887 307.07421875 419.83984375 C306.64931152 419.27249512 306.2244043 418.70514648 305.78662109 418.12060547 C301.44135562 412.36793849 296.82763794 406.81783622 292.25 401.25 C288.89998622 397.1682426 285.6221587 393.03832553 282.375 388.875 C277.53701031 382.67767512 272.55980936 376.60271571 267.55078125 370.54321289 C262.31532219 364.20908754 257.15839769 357.81936498 252.09375 351.34765625 C247.09358766 344.95942183 242.05604745 338.60650611 236.9375 332.3125 C236.12079834 331.30751465 236.12079834 331.30751465 235.28759766 330.28222656 C232.78770697 327.21181515 230.2777439 324.15106718 227.73828125 321.11328125 C226.91714844 320.12714844 226.09601563 319.14101563 225.25 318.125 C224.53199219 317.27164062 223.81398438 316.41828125 223.07421875 315.5390625 C221.5625 313.5 221.5625 313.5 221.5625 311.5 C220.9025 311.5 220.2425 311.5 219.5625 311.5 C219.30835327 312.30812134 219.30835327 312.30812134 219.04907227 313.13256836 C217.17739668 318.93095822 214.94598782 324.48538882 212.5 330.0625 C209.06721946 337.9688585 205.72541889 345.90737077 202.4375 353.875 C199.81490721 360.21396836 197.15431726 366.50183003 194.1875 372.6875 C190.69021262 380.00528379 187.6367923 387.49766235 184.5625 395 C170.86625471 428.39928226 170.86625471 428.39928226 162.5625 434.5 C159.14062273 435.70509297 155.80998608 435.63101872 152.20622253 435.64044189 C150.24423668 435.64900711 150.24423668 435.64900711 148.24261475 435.65774536 C146.7947999 435.65899064 145.34698495 435.66011576 143.89916992 435.66113281 C142.37301005 435.66576262 140.84685134 435.6707875 139.32069397 435.67617798 C135.17596535 435.68928795 131.03125291 435.69574414 126.8865068 435.70018864 C124.29605819 435.7031215 121.705614 435.70722671 119.11516762 435.71169281 C111.00734929 435.72536377 102.89954104 435.73503251 94.79171199 435.7388947 C85.43770464 435.74337523 76.08384343 435.76092455 66.72988051 435.7898953 C59.49577701 435.81152156 52.26171461 435.82159948 45.02757913 435.82293582 C40.70863335 435.82398313 36.38982502 435.82987522 32.07091331 435.84775543 C28.00710437 435.86425257 23.94353596 435.86638371 19.87970543 435.85761642 C18.39102025 435.85684694 16.90232206 435.86117712 15.41366959 435.87107468 C-0.29663437 435.9693739 -0.29663437 435.9693739 -6.75 430.5625 C-10.59196744 425.86676202 -10.98386847 421.86376689 -10.87451172 415.89794922 C-10.06626594 409.61349964 -7.24722533 404.20203283 -4.5 398.5625 C-3.89307583 397.27156177 -3.28878091 395.97938441 -2.68701172 394.68603516 C-1.49079924 392.11793757 -0.28588289 389.5542618 0.92626953 386.99365234 C3.03295767 382.49548653 5.00654045 377.95071797 6.9375 373.375 C7.6548259 371.69005222 8.37227983 370.00515893 9.08984375 368.3203125 C9.4751123 367.41313477 9.86038086 366.50595703 10.25732422 365.57128906 C12.9958847 359.12701468 15.74600583 352.6876908 18.5 346.25 C18.8139975 345.51584869 19.127995 344.78169739 19.45150757 344.02529907 C25.18887816 330.62040937 31.03809449 317.26599165 36.91290283 303.92086792 C42.57343084 291.06071855 48.16056034 278.17319387 53.67578125 265.25 C56.9449426 257.59271027 60.25163088 249.95182207 63.5625 242.3125 C63.83671783 241.6792984 64.11093567 241.0460968 64.39346313 240.39370728 C67.06213763 234.23213015 69.74049466 228.0757789 72.47607422 221.94360352 C76.62927038 212.60217871 80.71101941 203.22899357 84.78762817 193.85395813 C86.56218808 189.77779605 88.35526416 185.71068177 90.16941833 181.6519928 C91.47992148 178.71113153 92.76909224 175.76091112 94.0625 172.8125 C94.54920166 171.73943604 95.03590332 170.66637207 95.53735352 169.56079102 C95.96846436 168.56748779 96.3995752 167.57418457 96.84375 166.55078125 C97.22595703 165.69137939 97.60816406 164.83197754 98.00195312 163.9465332 C98.7278911 160.77814278 98.05666002 159.34046198 96.5625 156.5 C95.06128027 154.53496649 93.49143679 152.62140308 91.875 150.75 C87.6251794 145.76879015 83.54090773 140.69992311 79.5625 135.5 C78.38323152 133.96835249 77.20394993 132.43671504 76.02441406 130.90527344 C73.07647233 127.07633763 70.13325816 123.24377217 67.19140625 119.41015625 C55.95549419 104.77948587 44.60253045 90.24037882 33.18457031 75.75146484 C27.86316645 68.99823468 22.56911624 62.22682027 17.33837891 55.40307617 C13.30060193 50.14277227 9.20003849 44.93262313 5.09765625 39.72265625 C2.44533678 36.35386606 -0.19898331 32.97925731 -2.8046875 29.57421875 C-3.95880443 28.1081037 -5.15639517 26.67572461 -6.3828125 25.26953125 C-10.13561187 20.85581377 -12.42832876 17.47345807 -12.64453125 11.57421875 C-12.23352876 7.45643914 -10.67578617 4.64009607 -7.6640625 1.8671875 C-4.94232234 0.19594354 -3.17873029 0.03527024 0 0 Z M190.5625 33.5 C188.5825 38.12 186.6025 42.74 184.5625 47.5 C182.22741472 52.80991995 179.88469552 58.11617898 177.53125 63.41796875 C175.06314026 69.00258994 172.70258716 74.60908887 170.4609375 80.28808594 C169.2224258 83.33724789 167.80958638 86.28873033 166.375 89.25 C162.87308817 96.59575792 159.79705663 104.0999234 156.7590332 111.64746094 C154.47326836 117.32040267 152.07632088 122.92471329 149.5625 128.5 C148.9042253 129.98275232 148.24667891 131.46582818 147.58984375 132.94921875 C145.83200313 136.90500356 144.05012047 140.84959494 142.26464844 144.79296875 C138.1373501 153.91758718 134.17028422 163.08555091 130.3984375 172.36328125 C128.17606922 177.77582336 125.82917962 183.09229232 123.3125 188.375 C119.83779351 195.68186118 116.77951292 203.14371004 113.75878906 210.64794922 C111.47323417 216.32061815 109.07933516 221.92633824 106.5625 227.5 C103.28440336 234.78710309 100.16207519 242.13534179 97.0625 249.5 C93.96297254 256.8645448 90.84666833 264.21569139 87.5625 271.5 C87.21944824 272.26199707 86.87639648 273.02399414 86.52294922 273.80908203 C85.80451996 275.40308675 85.08552164 276.9968351 84.3659668 278.59033203 C76.10759594 296.80201964 76.10759594 296.80201964 68.45703125 315.2734375 C66.93412396 319.06408011 65.24138308 322.77657912 63.5625 326.5 C60.2783307 333.7842363 57.16198192 341.1355634 54.0625 348.5 C51.28394473 355.10190789 48.50077729 361.6974121 45.57226562 368.234375 C43.53405149 372.80754405 41.55441435 377.40652479 39.5625 382 C38.70870201 383.96890991 37.85454016 385.93766209 37 387.90625 C36.62746094 388.76541016 36.25492187 389.62457031 35.87109375 390.50976562 C34.11872279 394.51406404 32.3377112 398.5057748 30.5625 402.5 C68.1825 402.5 105.8025 402.5 144.5625 402.5 C146.8725 397.22 149.1825 391.94 151.5625 386.5 C154.25 380.5625 154.25 380.5625 155.44921875 377.9375 C158.00626553 372.33891337 160.48493194 366.71650671 162.84375 361.03125 C165.56350495 354.4915753 168.3074641 347.96238195 171.0625 341.4375 C171.52269531 340.34373047 171.98289062 339.24996094 172.45703125 338.12304688 C174.99486361 332.11446067 177.6078043 326.15111012 180.32568359 320.22192383 C182.48657324 315.46634572 184.55157307 310.6691989 186.625 305.875 C191.37617188 294.9029216 191.37617188 294.9029216 193.75 289.59375 C195.07217786 286.62886632 196.33040519 283.65408886 197.5 280.625 C199.29251879 276.0839524 201.29559388 271.66280257 203.33984375 267.23046875 C204.5109367 264.61515256 205.58277936 261.98140226 206.625 259.3125 C207.80993174 256.29068612 209.07645036 253.38536487 210.5625 250.5 C212.39728239 246.92252855 213.89861251 243.27597522 215.3671875 239.53515625 C222.76686429 220.74578086 222.76686429 220.74578086 227.37084961 211.91186523 C228.50475423 209.61687573 229.46837327 207.32282424 230.39453125 204.9375 C232.65573213 199.21352194 235.09648525 193.57570645 237.5625 187.9375 C238.20058594 186.47280273 238.20058594 186.47280273 238.8515625 184.97851562 C240.79536339 180.52148752 242.75027915 176.06989156 244.73046875 171.62890625 C246.15277088 168.4353211 247.53721526 165.23014207 248.875 162 C249.29394531 160.99195313 249.71289062 159.98390625 250.14453125 158.9453125 C251.1915187 156.40139258 252.23002738 153.85479328 253.26171875 151.3046875 C256.09904753 144.31363954 258.97705499 137.4460368 262.453125 130.7421875 C263.99237065 127.63117694 265.21539178 124.42197283 266.46875 121.1875 C267.7111635 118.13471253 269.09526366 115.16898122 270.5 112.1875 C273.04645111 106.74270128 275.23916346 101.22879423 277.35546875 95.60546875 C278.82034814 91.83660429 280.47605437 88.18317448 282.17578125 84.515625 C283.8658972 80.84021791 285.50128536 77.1426351 287.125 73.4375 C287.57782349 72.40435669 287.57782349 72.40435669 288.03979492 71.3503418 C289.67807798 67.5915047 291.25539274 63.81889807 292.75 60 C294.15766257 56.40596791 295.78690339 53.00827483 297.55078125 49.578125 C300.07487544 44.3934991 302.16448294 39.09206824 303.5625 33.5 C266.2725 33.5 228.9825 33.5 190.5625 33.5 Z " fill="#2D5DA9" transform="translate(432.4375,122.5)"/>
<path d="M0 0 C4.42880759 -0.22379308 8.8545637 -0.38636162 13.28735352 -0.49438477 C14.79216867 -0.53943718 16.2965943 -0.60070654 17.80004883 -0.67895508 C30.27370358 -1.3115269 30.27370358 -1.3115269 34.46411133 1.87207031 C36.25361407 4.16502647 37.64910312 6.42876088 39 9 C39.64066406 9.86367188 40.28132813 10.72734375 40.94140625 11.6171875 C41.47636719 12.36226562 42.01132812 13.10734375 42.5625 13.875 C46.37191816 19.14271105 50.21082273 24.38810159 54.0625 29.625 C54.64008057 30.41245605 55.21766113 31.19991211 55.81274414 32.01123047 C59.78703171 37.41130427 63.85871631 42.72699058 68 48 C70.56974227 45.51747866 72.82030845 43.04494744 74.8828125 40.12890625 C75.40528564 39.39615479 75.92775879 38.66340332 76.46606445 37.90844727 C77.01351318 37.13428467 77.56096191 36.36012207 78.125 35.5625 C82.10202606 29.99287282 86.10933327 24.46395981 90.3125 19.0625 C94.12192793 14.16555187 97.79954414 9.19244129 101.40625 4.14453125 C103 2 103 2 105 0 C107.43744897 -0.17488254 109.7593608 -0.23177405 112.1953125 -0.1953125 C112.90275604 -0.1924826 113.61019958 -0.18965271 114.33908081 -0.18673706 C116.6012251 -0.17553137 118.86297515 -0.15042679 121.125 -0.125 C122.65754637 -0.11497067 124.19009894 -0.10584474 125.72265625 -0.09765625 C129.48192301 -0.07559086 133.24089464 -0.04105896 137 0 C135.64937867 2.85422566 134.11992167 5.37910538 132.27734375 7.94140625 C131.74326904 8.68447021 131.20919434 9.42753418 130.65893555 10.19311523 C130.09086182 10.97501221 129.52278809 11.75690918 128.9375 12.5625 C128.35331299 13.36953369 127.76912598 14.17656738 127.16723633 15.00805664 C123.2897765 20.32737524 119.26748385 25.45212768 115.04296875 30.5 C112.21755836 33.95748117 109.6262482 37.56496051 107.0234375 41.19140625 C100.23057777 50.62010537 93.10395262 59.80490475 86 69 C90.00396506 75.48010135 94.6231768 81.36842905 99.40332031 87.27978516 C104.08623968 93.07789142 108.56149646 99.01283662 113 105 C114.9758376 107.64833027 116.95599614 110.2934073 118.9375 112.9375 C119.44345703 113.61264648 119.94941406 114.28779297 120.47070312 114.98339844 C128.60028961 126.05025554 128.60028961 126.05025554 137.34375 136.61328125 C137.8903125 137.40089844 138.436875 138.18851563 139 139 C138.60351562 141.14916992 138.60351562 141.14916992 138 143 C109.73643024 145.24672779 109.73643024 145.24672779 104.203125 140.66796875 C102.10982429 137.81953439 100.52107575 135.16009776 99.02685547 131.98095703 C97.12621653 128.31434164 94.47243053 125.18151018 91.9375 121.9375 C90.91727851 120.58059573 89.9002926 119.22125206 88.88671875 117.859375 C87.10141163 115.47110678 85.31327408 113.08506388 83.51953125 110.703125 C78.61265551 104.18314553 73.77862753 97.614558 69 91 C64.09296089 95.55449455 60.20512025 100.78694255 56.1875 106.125 C55.11411377 107.54232422 55.11411377 107.54232422 54.01904297 108.98828125 C49.90901621 114.42705725 45.85491038 119.89903087 41.875 125.43359375 C39.50400952 128.67888696 37.07201699 131.87430661 34.625 135.0625 C34.19525879 135.62388672 33.76551758 136.18527344 33.32275391 136.76367188 C31.63126675 138.95766801 29.96125649 141.03874351 28 143 C25.01904297 143.22705078 25.01904297 143.22705078 21.2421875 143.1953125 C20.57913605 143.1924826 19.91608459 143.18965271 19.23294067 143.18673706 C17.11344417 143.17553435 14.99436896 143.15043051 12.875 143.125 C11.43880818 143.11497028 10.00260975 143.10584441 8.56640625 143.09765625 C5.04413372 143.075595 1.52210797 143.04106494 -2 143 C-2.33 142.34 -2.66 141.68 -3 141 C-2.29037109 140.03513672 -2.29037109 140.03513672 -1.56640625 139.05078125 C1.50013021 134.86044585 4.55827929 130.67795664 7.46484375 126.375 C8.06824585 125.48494263 8.06824585 125.48494263 8.68383789 124.5769043 C9.47136566 123.41038182 10.25322103 122.24000762 11.02905273 121.06567383 C11.96949315 119.67537499 12.97905954 118.33230612 14 117 C14.66 117 15.32 117 16 117 C16.27295898 116.42072754 16.54591797 115.84145508 16.82714844 115.24462891 C17.98901526 113.02102283 19.2779642 111.10378052 20.765625 109.0859375 C21.59634521 107.95696045 21.59634521 107.95696045 22.44384766 106.80517578 C23.03987793 106.00321777 23.6359082 105.20125977 24.25 104.375 C24.86536621 103.54339355 25.48073242 102.71178711 26.11474609 101.85498047 C33.87314014 91.41530434 41.85044135 81.13725589 50 71 C48.47870815 66.33995082 45.90946227 63.06520333 42.875 59.3125 C38 53.26239669 38 53.26239669 38 51 C37.34 51 36.68 51 36 51 C34.54150391 49.1640625 34.54150391 49.1640625 32.8515625 46.625 C29.20579612 41.26657127 25.3317654 36.13100291 21.375 31 C16.00784506 23.99183114 10.69336721 16.95064849 5.5 9.8125 C4.94231934 9.05259766 4.38463867 8.29269531 3.81005859 7.50976562 C3.30555176 6.81173828 2.80104492 6.11371094 2.28125 5.39453125 C1.83845703 4.78456299 1.39566406 4.17459473 0.93945312 3.54614258 C0 2 0 2 0 0 Z " fill="#2D5DA9" transform="translate(268,779)"/>
<path d="M0 0 C11.83774527 11.98312109 15.40848932 26.93809301 15.3125 43.3125 C15.30686035 44.3228833 15.3012207 45.3332666 15.29541016 46.37426758 C15.03576494 62.37843906 10.67468326 76.07721126 -0.5859375 87.80859375 C-10.75882379 97.04320412 -22.58364542 99.82103927 -36.0546875 99.35546875 C-44.88374724 98.55997921 -51.34618537 95.37360836 -59 91 C-59.33 104.86 -59.66 118.72 -60 133 C-68.25 133 -76.5 133 -85 133 C-85 86.14 -85 39.28 -85 -9 C-76.75 -9 -68.5 -9 -60 -9 C-60 -7.02 -60 -5.04 -60 -3 C-59.443125 -3.32613281 -58.88625 -3.65226563 -58.3125 -3.98828125 C-39.1681535 -14.9510067 -17.31262463 -14.9831851 0 0 Z M-54 17 C-54 17.66 -54 18.32 -54 19 C-54.61875 19.268125 -55.2375 19.53625 -55.875 19.8125 C-58.2995233 20.95556848 -58.2995233 20.95556848 -60 24 C-60.23267741 26.98679924 -60.35209528 29.87791702 -60.37109375 32.8671875 C-60.38012222 33.73892609 -60.3891507 34.61066467 -60.39845276 35.50881958 C-60.41295862 37.35301274 -60.42184283 39.1972574 -60.42553711 41.04150391 C-60.43742815 43.85798233 -60.48660341 46.67226566 -60.53710938 49.48828125 C-60.54657446 51.28123932 -60.55380909 53.07421083 -60.55859375 54.8671875 C-60.58789223 56.12678787 -60.58789223 56.12678787 -60.61778259 57.41183472 C-60.58430947 61.76700146 -60.44971198 63.44816621 -57.60571289 66.93798828 C-56.74582764 67.61845215 -55.88594238 68.29891602 -55 69 C-53.88625 70.051875 -53.88625 70.051875 -52.75 71.125 C-46.13967753 75.63203805 -38.89695686 76.93447323 -31 76 C-25.0292065 74.24993984 -20.09238715 70.67701389 -16 66 C-16 65.01 -16 64.02 -16 63 C-15.34 63 -14.68 63 -14 63 C-9.54614024 49.3799378 -8.17087634 38.56128474 -14 25 C-18.02336204 18.15829277 -22.53981335 14.11362064 -29.9375 11.25 C-39.39156356 10.1040529 -45.70858019 12.6470046 -54 17 Z " fill="#2D5DA9" transform="translate(496,825)"/>
<path d="M0 0 C0.76957031 0.2784375 1.53914063 0.556875 2.33203125 0.84375 C14.87659939 5.94066735 27.31586238 14.94829733 34 27 C34 28.32 34 29.64 34 31 C31.08763461 32.65353259 28.16941396 34.29644905 25.25 35.9375 C24.0125 36.64036133 24.0125 36.64036133 22.75 37.35742188 C21.95078125 37.80537109 21.1515625 38.25332031 20.328125 38.71484375 C19.5949707 39.12855225 18.86181641 39.54226074 18.10644531 39.96850586 C16.0699021 40.96577001 14.21406716 41.542747 12 42 C11.46632813 41.27554688 10.93265625 40.55109375 10.3828125 39.8046875 C3.04663832 30.28543035 -4.98270796 24.14275638 -17 22 C-29.01179324 20.83912871 -40.84532547 23.5530715 -50.50390625 30.90625 C-60.44790845 39.32382563 -66.8122504 49.97126069 -68.22753906 63.11279297 C-69.27655451 78.15857743 -66.56078193 91.94595461 -57 104 C-48.72228087 113.2610335 -37.12858193 118.12586347 -24.91796875 119.1796875 C-14.36097959 119.55449185 -5.23425155 115.7243713 3.25 109.6875 C6.60863231 106.40520024 9.31292099 102.84004553 12 99 C17.26122171 100.51031916 21.67232586 102.90374191 26.375 105.625 C27.11105469 106.04523438 27.84710938 106.46546875 28.60546875 106.8984375 C30.4063765 107.92752764 32.20357318 108.96310756 34 110 C33.01379008 118.42071545 25.50283821 124.99231208 19.3125 130.25 C3.63327329 142.07009815 -13.70253608 145.71931178 -33 144 C-41.68733459 142.71943339 -50.25526239 140.16573008 -58 136 C-59.175625 135.38898438 -59.175625 135.38898438 -60.375 134.765625 C-77.56447547 125.20397927 -88.0110593 110.54357374 -93.59326172 92.03271484 C-97.63511933 76.44578314 -97.11122312 55.94057234 -91 41 C-90.30583984 39.24623047 -90.30583984 39.24623047 -89.59765625 37.45703125 C-82.40417094 21.32885025 -69.0849976 9.31703743 -53.0625 2.125 C-36.58662228 -4.07490711 -16.82674936 -6.12842363 0 0 Z " fill="#2D5EA9" transform="translate(230,780)"/>
<path d="M0 0 C9.82384823 9.06215821 15.01872327 21.88106287 16.875 34.875 C16.875 41.145 16.875 47.415 16.875 53.875 C-8.535 53.545 -33.945 53.215 -60.125 52.875 C-58.805 56.175 -57.485 59.475 -56.125 62.875 C-56.125 63.535 -56.125 64.195 -56.125 64.875 C-55.465 64.875 -54.805 64.875 -54.125 64.875 C-52.828125 66.30078125 -52.828125 66.30078125 -51.375 68.1875 C-47.39135003 72.9853266 -43.21361157 74.8602314 -37.125 75.875 C-23.38643159 76.88547462 -14.73583 73.55156411 -4.125 64.875 C-3.465 64.215 -2.805 63.555 -2.125 62.875 C0.875 62.875 0.875 62.875 2.24121094 64.18847656 C3.71613338 66.15819811 5.18355679 68.13057346 6.625 70.125 C7.14449219 70.80691406 7.66398438 71.48882813 8.19921875 72.19140625 C8.92818359 73.18720703 8.92818359 73.18720703 9.671875 74.203125 C10.11885742 74.8105957 10.56583984 75.41806641 11.02636719 76.04394531 C11.875 77.875 11.875 77.875 11.63378906 79.96386719 C10.58602281 82.60283572 9.02089403 84.05424143 6.875 85.875 C6.215 85.875 5.555 85.875 4.875 85.875 C4.875 86.535 4.875 87.195 4.875 87.875 C-12.31804352 97.64090156 -29.95219225 102.36626428 -49.625 97.3125 C-56.16351203 95.15334142 -61.61108641 91.95871414 -67.125 87.875 C-67.78113281 87.41351562 -68.43726563 86.95203125 -69.11328125 86.4765625 C-78.20029915 79.50514744 -83.34973505 68.12406446 -85.7109375 57.15234375 C-87.95732677 39.37196074 -86.06941141 21.80088188 -75.05078125 7.109375 C-70.35839562 1.63901968 -65.41929865 -2.61959375 -59.125 -6.125 C-58.44050781 -6.51429688 -57.75601563 -6.90359375 -57.05078125 -7.3046875 C-38.59528343 -16.65183427 -15.69613518 -12.64158864 0 0 Z M-54.9375 19.9375 C-56.38628103 21.92255773 -56.38628103 21.92255773 -56.125 24.875 C-56.785 24.875 -57.445 24.875 -58.125 24.875 C-58.785 27.185 -59.445 29.495 -60.125 31.875 C-42.965 31.875 -25.805 31.875 -8.125 31.875 C-11.48935673 22.90338205 -14.60041854 16.20694818 -23.3203125 11.75390625 C-26.91831586 10.62639823 -30.33041073 10.54517368 -34.0625 10.5625 C-34.75279297 10.54638672 -35.44308594 10.53027344 -36.15429688 10.51367188 C-44.05382643 10.50618417 -49.81038971 14.10320208 -54.9375 19.9375 Z " fill="#2D5EA9" transform="translate(606.125,825.125)"/>
<path d="M0 0 C0.4846875 0.44730469 0.969375 0.89460937 1.46875 1.35546875 C0.89551628 5.56682584 -0.53826617 8.36841227 -2.84375 11.91796875 C-3.43800781 12.84738281 -4.03226563 13.77679687 -4.64453125 14.734375 C-6.43041402 17.21538398 -8.30612079 19.26787512 -10.53125 21.35546875 C-11.4903125 20.30359375 -11.4903125 20.30359375 -12.46875 19.23046875 C-20.12446223 11.57475652 -28.68514652 7.79715285 -39.40625 7.10546875 C-45.21000723 7.20553353 -49.82582494 8.77483089 -54.09375 12.73046875 C-55.68892436 15.23539248 -55.68892436 15.23539248 -55.78125 17.91796875 C-53.8303967 21.72213269 -50.34209829 22.81900988 -46.53125 24.35546875 C-40.79337041 26.16568717 -34.96847351 27.65896841 -29.1484375 29.1796875 C-17.70156329 32.29591898 -6.24355321 35.92527305 0.46875 46.35546875 C4.61995938 54.06686786 3.71085837 66.3327684 1.6640625 74.609375 C-2.17439913 83.06722667 -9.58337532 88.99268069 -18 92.56640625 C-35.15556238 97.91428218 -53.49019886 96.7625332 -69.53125 88.48046875 C-73.99323124 85.85263525 -77.82813252 82.97629473 -81.53125 79.35546875 C-81.53125 78.69546875 -81.53125 78.03546875 -81.53125 77.35546875 C-82.19125 77.35546875 -82.85125 77.35546875 -83.53125 77.35546875 C-83.07077805 72.23149365 -80.4523175 69.02789865 -77.46875 65.04296875 C-76.99630859 64.39779297 -76.52386719 63.75261719 -76.03710938 63.08789062 C-74.87615296 61.50476824 -73.70472664 59.92933306 -72.53125 58.35546875 C-68.22177399 58.86025003 -66.32384625 60.13100694 -63.28125 63.16796875 C-55.09267671 70.78334191 -46.50913311 72.68222129 -35.546875 72.57421875 C-30.49560027 72.20780504 -26.47869776 70.9986278 -22.53125 67.66796875 C-21.0169548 64.1661611 -21.34148108 61.15084725 -21.53125 57.35546875 C-25.56852773 55.64963799 -29.68332785 54.36728934 -33.88671875 53.1484375 C-35.32889993 52.72242437 -36.77095317 52.29597796 -38.21289062 51.86914062 C-40.4581626 51.20681347 -42.70408608 50.54722095 -44.95239258 49.89526367 C-67.87657167 43.23316905 -67.87657167 43.23316905 -74.03125 35.91796875 C-74.6603125 35.19738281 -75.289375 34.47679687 -75.9375 33.734375 C-81.04600214 26.1091843 -80.52226734 15.64499465 -79.13671875 6.8515625 C-76.62826096 -1.15931884 -70.06730923 -7.15253146 -62.90625 -11.08203125 C-41.36160517 -20.81361486 -17.02849559 -15.35839314 0 0 Z " fill="#2D5EA9" transform="translate(855.53125,828.64453125)"/>
<path d="M0 0 C7.92 0 15.84 0 24 0 C24 8.58 24 17.16 24 26 C30.6 26 37.2 26 44 26 C44 33.26 44 40.52 44 48 C37.4 48 30.8 48 24 48 C24.10806878 55.64091423 24.22015835 63.28174912 24.33933926 70.92249775 C24.39451792 74.47035451 24.44792977 78.01821959 24.49731445 81.56616211 C24.55415852 85.64445958 24.61866801 89.72260438 24.68359375 93.80078125 C24.70030624 95.07585037 24.71701874 96.35091949 24.73423767 97.66462708 C24.7641555 99.43612373 24.7641555 99.43612373 24.79467773 101.2434082 C24.81799416 102.80560844 24.81799416 102.80560844 24.84178162 104.39936829 C24.89468675 107.11411733 24.89468675 107.11411733 26 110 C29.28999282 110.41831404 29.28999282 110.41831404 33 110 C35.68767578 107.56249975 35.68767578 107.56249975 38 105 C39.32 105 40.64 105 42 105 C43.23357316 107.9066235 44.43224874 110.8264142 45.625 113.75 C46.1509375 114.9875 46.1509375 114.9875 46.6875 116.25 C47.00976562 117.04921875 47.33203125 117.8484375 47.6640625 118.671875 C47.96779785 119.4050293 48.2715332 120.13818359 48.58447266 120.89355469 C49.12203773 123.61864955 48.49531463 124.71091433 47 127 C40.1816311 132.79401301 32.26459308 134.48346122 23.51171875 134.2421875 C15.30990538 133.45134391 9.51208214 130.08274476 4 124 C0.45501612 118.28228406 -0.12639993 113.09596439 -0.11352539 106.46557617 C-0.11344986 105.16460495 -0.11337433 103.86363373 -0.11329651 102.52323914 C-0.10819062 101.11314861 -0.10297464 99.70305849 -0.09765625 98.29296875 C-0.09578979 96.84279937 -0.09436696 95.39262935 -0.09336853 93.94245911 C-0.0895613 90.13667034 -0.07974642 86.33092009 -0.06866455 82.52514648 C-0.05841177 78.63721233 -0.05386264 74.74927192 -0.04882812 70.86132812 C-0.03812246 63.24086587 -0.02054028 55.62044325 0 48 C-5.28 48 -10.56 48 -16 48 C-16 40.74 -16 33.48 -16 26 C-10.72 26 -5.44 26 0 26 C0 17.42 0 8.84 0 0 Z " fill="#2E5EA9" transform="translate(718,790)"/>
<path d="M0 0 C0 7.92 0 15.84 0 24 C-2.330625 24.103125 -4.66125 24.20625 -7.0625 24.3125 C-15.66361794 24.82017933 -20.97153744 26.88839086 -28 32 C-28.54280106 32.39290726 -29.08560211 32.78581451 -29.64485168 33.19062805 C-31.74765087 35.99825126 -31.40212665 38.48371369 -31.43237305 41.94995117 C-31.4425647 42.65264633 -31.45275635 43.35534149 -31.46325684 44.07933044 C-31.493437 46.40062378 -31.50266006 48.72150483 -31.51171875 51.04296875 C-31.52856179 52.65295285 -31.54671152 54.26292377 -31.56611633 55.87287903 C-31.61366355 60.10936362 -31.64344218 64.34579479 -31.66955566 68.5824585 C-31.6993375 72.90599115 -31.74587594 77.22933961 -31.79101562 81.55273438 C-31.87710255 90.03508121 -31.94287498 98.51740862 -32 107 C-39.92 107 -47.84 107 -56 107 C-56 72.35 -56 37.7 -56 2 C-48.08 2 -40.16 2 -32 2 C-31.67 4.31 -31.34 6.62 -31 9 C-30.45472656 8.60167969 -29.90945313 8.20335937 -29.34765625 7.79296875 C-19.42342131 0.82055753 -12.12287989 -0.38282779 0 0 Z " fill="#2D5EA9" transform="translate(694,814)"/>
<path d="M0 0 C0.33 0.99 0.66 1.98 1 3 C18.16 3 35.32 3 53 3 C53.33 2.34 53.66 1.68 54 1 C54 2.32 54 3.64 54 5 C36.18 5 18.36 5 0 5 C-0.33 4.34 -0.66 3.68 -1 3 C-0.67 2.01 -0.34 1.02 0 0 Z " fill="#4F71B6" transform="translate(545,854)"/>
<path d="M0 0 C0 3 0 3 -1.46875 4.80932617 C-2.1390625 5.46392822 -2.809375 6.11853027 -3.5 6.79296875 C-4.221875 7.50517578 -4.94375 8.21738281 -5.6875 8.95117188 C-6.450625 9.68916016 -7.21375 10.42714844 -8 11.1875 C-9.1446875 12.31188477 -9.1446875 12.31188477 -10.3125 13.45898438 C-12.20180839 15.31286823 -14.09775206 17.15941069 -16 19 C-16.66 18.67 -17.32 18.34 -18 18 C-16.625 16 -16.625 16 -15 14 C-14.34 14 -13.68 14 -13 14 C-12.773125 13.443125 -12.54625 12.88625 -12.3125 12.3125 C-10.62449964 9.33840412 -8.53323483 7.27991135 -6 5 C-5.34 5 -4.68 5 -4 5 C-4 4.34 -4 3.68 -4 3 C-2 1.375 -2 1.375 0 0 Z " fill="#DDA529" transform="translate(340,371)"/>
<path d="M0 0 C0.56589844 0.72058594 1.13179687 1.44117188 1.71484375 2.18359375 C4.63525087 5.78293312 7.75325773 9.17683687 10.87890625 12.59765625 C12.70626681 14.66731877 14.38374617 16.76409614 16 19 C8.56810734 15.85573772 3.69973124 10.00587406 0 3 C0 2.01 0 1.02 0 0 Z " fill="#3663AC" transform="translate(526,895)"/>
<path d="M0 0 C0.66 0.33 1.32 0.66 2 1 C4.10374996 1.15441209 6.21195119 1.24992639 8.3203125 1.31640625 C9.57714844 1.35830078 10.83398438 1.40019531 12.12890625 1.44335938 C14.10697266 1.50233398 14.10697266 1.50233398 16.125 1.5625 C17.46485751 1.60569512 18.80470156 1.64930973 20.14453125 1.69335938 C23.42957815 1.79970981 26.71470281 1.90173808 30 2 C30 2.33 30 2.66 30 3 C20.1 3 10.2 3 0 3 C0 2.01 0 1.02 0 0 Z " fill="#5975BA" transform="translate(266,919)"/>
<path d="M0 0 C0.66 0.33 1.32 0.66 2 1 C-2.29 5.29 -6.58 9.58 -11 14 C-11 10.30159372 -10.17133056 9.68584567 -7.75 7 C-7.14671875 6.319375 -6.5434375 5.63875 -5.921875 4.9375 C-4.06233388 3.06284066 -2.15205789 1.52358081 0 0 Z " fill="#3664AD" transform="translate(542,822)"/>
<path d="M0 0 C-1.299375 0.5259375 -1.299375 0.5259375 -2.625 1.0625 C-6.73068227 3.41946575 -9.13791503 6.29552831 -12 10 C-12.33 9.01 -12.66 8.02 -13 7 C-11.890625 5.2109375 -11.890625 5.2109375 -10.25 3.375 C-9.71890625 2.76398438 -9.1878125 2.15296875 -8.640625 1.5234375 C-5.71613818 -1.1921574 -3.60127254 -1.1176363 0 0 Z " fill="#3664AD" transform="translate(610,125)"/>
<path d="M0 0 C0.99 0.33 1.98 0.66 3 1 C0.69 3.31 -1.62 5.62 -4 8 C-4.66 7.67 -5.32 7.34 -6 7 C-4.625 5 -4.625 5 -3 3 C-2.34 3 -1.68 3 -1 3 C-0.67 2.01 -0.34 1.02 0 0 Z " fill="#EAAB1C" transform="translate(328,382)"/>
</svg>
